{"title":"Sharon 123 2018 1080p WEB-DL DD 5.1 x264 [MW]","magnet":"magnet:?xt=urn:btih:e235b8548e01a3ca931000f66ae119f49dd0689f&dn=Sharon+123+2018+1080p+WEB-DL+DD+5.1+x264+%5BMW%5D&tr=udp%3A%2F%2Ftracker.leechers-paradise.org%3A6969&tr=udp%3A%2F%2Fzer0day.ch%3A1337&tr=udp%3A%2F%2Fopen.demonii.com%3A1337&tr=udp%3A%2F%2Ftracker.coppersurfer.tk%3A6969&tr=udp%3A%2F%2Fexodus.desync.com%3A6969","uploader":"MFreaky","categoryP":"video","categoryS":"hd___movies","size":"1540071553","seeders":"0","leechers":"0","description":" <a href=\"https://pichub.site/image/Egvtj\" rel=\"nofollow\" target=\"_NEW\">https://pichub.site/image/Egvtj</a> <a href=\"\nhttps://pichub.site/image/Eg0jk\" rel=\"nofollow\" target=\"_NEW\">\nhttps://pichub.site/image/Eg0jk</a> <a href=\"\nhttps://pichub.site/image/EgrkQ\" rel=\"nofollow\" target=\"_NEW\">\nhttps://pichub.site/image/EgrkQ</a> <a href=\"\nhttps://pichub.site/image/Egoxv\" rel=\"nofollow\" target=\"_NEW\">\nhttps://pichub.site/image/Egoxv</a> <a href=\"\nhttps://pichub.site/image/EgpTd\" rel=\"nofollow\" target=\"_NEW\">\nhttps://pichub.site/image/EgpTd</a>\r\n\r\nIMDB <a href=\"\nhttps://www.imdb.com/title/tt3127016/\" rel=\"nofollow\" target=\"_NEW\">\nhttps://www.imdb.com/title/tt3127016/</a>\r\n\r\nVideo\r\nFormat                                   : AVC\r\nFormat/Info                              : Advanced Video Codec\r\nFormat profile                           : High@L4.1\r\nFormat settings                          : CABAC / 4 Ref Frames\r\nFormat settings, CABAC                   : Yes\r\nFormat settings, RefFrames               : 4 frames\r\nCodec ID                                 : V_MPEG4/ISO/AVC\r\nDuration                                 : 1 h 20 min\r\nBit rate                                 : 2 200 kb/s\r\nWidth                                    : 1 920 pixels\r\nHeight                                   : 1 080 pixels\r\nDisplay aspect ratio                     : 16:9\r\nFrame rate mode                          : Constant\r\nFrame rate                               : 23.976 (24000/1001) FPS\r\nColor space                              : YUV\r\nChroma subsampling                       : 4:2:0\r\nBit depth                                : 8 bits\r\nScan type                                : Progressive\r\nBits/(Pixel*Frame)                       : 0.044\r\nStream size                              : 1.22 GiB (85%)\r\nWriting library                          : x264 core 155 r2901 7d0ff22\r\n\r\nAudio\r\nFormat                                   : AC-3\r\nFormat/Info                              : Audio Coding 3\r\nCodec ID                                 : A_AC3\r\nDuration                                 : 1 h 20 min\r\nBit rate mode                            : Constant\r\nBit rate                                 : 384 kb/s\r\nChannel(s)                               : 6 channels\r\nChannel positions                        : Front: L C R, Side: L R, LFE\r\nSampling rate                            : 48.0 kHz\r\nFrame rate                               : 31.250 FPS (1536 SPF)\r\nBit depth                                : 16 bits\r\nCompression mode                         : Lossy\r\nStream size                              : 222 MiB (15%)\r\nLanguage                                 : English","last_updated":"2018-09-22T12:11:21.903Z","parsed":{"xt":"urn:btih:e235b8548e01a3ca931000f66ae119f49dd0689f","dn":"Sharon 123 2018 1080p WEB-DL DD 5.1 x264 [MW]","tr":["udp://exodus.desync.com:6969","udp://open.demonii.com:1337","udp://tracker.coppersurfer.tk:6969","udp://tracker.leechers-paradise.org:6969","udp://zer0day.ch:1337"],"infoHash":"e235b8548e01a3ca931000f66ae119f49dd0689f","infoHashBuffer":{"type":"Buffer","data":[226,53,184,84,142,1,163,202,147,16,0,246,106,225,25,244,157,208,104,159]},"name":"Sharon 123 2018 1080p WEB-DL DD 5.1 x264 [MW]","announce":["udp://exodus.desync.com:6969","udp://open.demonii.com:1337","udp://tracker.coppersurfer.tk:6969","udp://tracker.leechers-paradise.org:6969","udp://zer0day.ch:1337"],"urlList":[]}}